<?xml version="1.0" encoding="UTF-8"?>
<svg width="118px" height="31px" viewBox="0 0 118 31" version="1.1" xmlns="http://www.w3.org/2000/svg" xmlns:xlink="http://www.w3.org/1999/xlink">
    <title>logo_Sacyr_color</title>
    <g id="Symbols" stroke="none" stroke-width="1" fill="none" fill-rule="evenodd">
        <g id="01-atomos/Logo/Brand/Color" transform="translate(-15.000000, -17.000000)">
            <g id="logo_Sacyr_color" transform="translate(15.000096, 17.350000)">
                <path d="M102.351336,25.6193631 L108.462936,25.6193631 L108.462936,12.3627231 C108.462936,9.03296307 105.763416,6.33416307 102.433656,6.33416307 L102.351336,6.33416307 L102.351336,25.6193631 Z" id="Fill-1" fill="#002C58"></path>
                <polygon id="Fill-3" fill="#002C58" points="81.964584 29.5652991 88.275384 29.5652991 99.243384 0.635699073 92.933544 0.635699073"></polygon>
                <path d="M14.52096,10.7624511 C12.79104,10.4910111 6.80712,9.67261107 5.63088,9.49309107 C5.59704,9.80437107 5.58816,11.4284511 5.58816,11.4284511 C5.58816,13.2147711 6.89544,14.7313311 8.66112,14.9950911 C10.28736,15.2374911 12.16944,15.5139711 13.27896,15.6826911 C14.808,15.9210111 15.7632,16.8764511 15.7632,18.3094911 C15.7632,21.0322911 12.70584,21.4628511 10.69944,21.4628511 C8.98008,21.4628511 7.8816,21.1282911 6.92544,20.3641311 C6.16128,19.7427711 5.58816,18.5490111 5.58816,17.4505311 L2.45137244e-13,17.4505311 C2.45137244e-13,19.7902911 1.19376,21.8449311 2.6268,23.2297311 C4.68072,25.1883711 7.49952,26.0960511 10.65192,26.0960511 C14.04312,26.0960511 17.14776,25.2358911 19.15416,23.2297311 C20.44368,21.9399711 21.30384,20.1721311 21.30384,17.7848511 C21.30384,13.8673311 18.43728,11.3830911 14.52096,10.7624511" id="Fill-6" fill="#002C58"></path>
                <path d="M40.554504,10.0018911 L42.812664,10.0018911 C44.955624,10.0018911 46.512984,7.95781107 45.936984,5.89333107 C45.860184,5.61685107 45.770184,5.34445107 45.665544,5.07781107 C44.232504,1.35229107 40.601784,0.015251073 36.350664,0.015251073 C30.809784,0.015251073 26.366664,2.49853107 26.032344,8.08765107 L31.812744,8.08765107 C31.956024,5.79445107 33.580344,4.55221107 36.350664,4.55221107 C39.741624,4.55221107 40.554504,6.12901107 40.554504,8.46973107" id="Fill-8" fill="#002C58"></path>
                <path d="M102.351336,6.33380307 L102.351336,6.33380307 L117.905976,6.33380307 L117.905976,0.635963073 L108.049176,0.635963073 C104.902536,0.635963073 102.351336,3.18740307 102.351336,6.33380307" id="Fill-10" fill="#00AFD2"></path>
                <path d="M86.780064,16.8504591 L80.389584,0.635579073 L73.956864,0.635579073 L79.086624,13.6526991 C79.847664,15.5822991 81.710544,16.8504591 83.785584,16.8504591 L86.780064,16.8504591 Z" id="Fill-13" fill="#00AFD2"></path>
                <path d="M40.554504,15.0045231 L40.554504,15.2150031 C40.554504,18.8930031 38.166024,21.0554031 34.200744,21.0554031 C32.176344,21.0554031 30.666264,19.7056431 30.666264,17.7945231 C30.666264,16.7354031 31.158984,16.1428431 31.895064,15.6366831 C32.724984,15.0638031 33.899304,15.0045231 34.927224,15.0045231 L40.554504,15.0045231 L40.554504,10.0019631 L33.874104,10.0019631 C33.084744,10.0067631 32.295624,10.1241231 31.526664,10.3036431 C27.654504,11.2043631 24.838824,14.1714831 24.838824,18.3102831 C24.838824,22.3703631 27.895944,26.0958831 33.818904,26.0958831 C36.696024,26.0958831 39.129624,24.9563631 40.554504,23.4506031 L40.554504,25.6197231 L45.971064,25.6197231 L45.971064,15.0045231 L40.554504,15.0045231 Z" id="Fill-15" fill="#00AFD2"></path>
                <path d="M18.58104,2.92798707 C16.48848,0.670547073 13.22256,-0.109932927 10.24176,0.012227073 C7.22016,0.136307073 4.02528,1.19518707 2.13408,3.68230707 C1.58352,4.40686707 1.18656,5.23102707 0.95712,6.11062707 C0.73608,6.96094707 0.60792,7.83646707 0.60792,8.71294707 C1.6824,8.87614707 5.5524,9.48406707 5.63088,9.49270707 C5.63472,9.46174707 5.69592,8.93038707 5.7144,8.80438707 C5.75016,8.56198707 5.79264,8.32054707 5.84808,8.08198707 C5.9568,7.61158707 6.11088,7.15006707 6.33672,6.72238707 C6.78384,5.88262707 7.49952,5.24278707 8.38176,4.89070707 C9.23328,4.55110707 10.17576,4.45918707 11.0832,4.53478707 C11.98344,4.60942707 12.91536,4.83550707 13.66104,5.36302707 C14.47056,5.93494707 15.03096,6.86974707 15.08928,7.86574707 L15.09504,8.04022707 L20.77824,8.04022707 C20.77536,5.09038707 18.58104,2.92798707 18.58104,2.92798707" id="Fill-17" fill="#00AFD2"></path>
                <path d="M56.532912,10.0018911 C52.722912,10.0018911 50.120352,12.8487711 50.518032,16.2126111 C50.535312,16.3611711 50.572272,16.6006911 50.578032,16.6335711 C50.981472,18.7280511 51.767952,20.5666911 52.976112,22.0830111 C54.695472,24.1854111 57.847872,26.0007711 61.621872,26.0007711 C65.394672,26.0007711 68.404752,24.2329311 70.124112,22.0830111 C71.271072,20.6024511 71.939232,18.6447711 72.034992,16.6858911 L66.159792,16.6858911 C66.111312,17.5935711 65.825472,18.3574911 65.443152,18.9783711 C64.726752,20.0768511 63.437232,20.8419711 61.621872,20.8419711 C59.997552,20.8419711 58.802832,20.1253311 57.991152,19.2651711 C56.557872,17.6886111 56.319312,15.3476511 56.319312,13.0078911 C56.319312,11.9907711 56.364192,10.9657311 56.532912,10.0018911" id="Fill-19" fill="#002C58"></path>
                <path d="M57.991176,6.70249107 C58.802856,5.84233107 59.997336,5.17417107 61.621656,5.17417107 C63.436776,5.17417107 64.726296,5.93833107 65.443176,7.03705107 C65.825496,7.65745107 66.111336,8.42161107 66.159576,9.32929107 L72.035016,9.32929107 C71.939016,7.37161107 71.270856,5.41273107 70.123896,3.93217107 C68.404536,1.78249107 65.395656,0.014651073 61.621656,0.014651073 C57.847656,0.014651073 54.695496,1.82977107 52.975896,3.93217107 C51.651336,5.59585107 50.836056,7.65193107 50.474376,10.0022511 L56.532936,10.0022511 C56.751816,8.74753107 57.181416,7.59361107 57.991176,6.70249107" id="Fill-21" fill="#00AFD2"></path>
            </g>
        </g>
    </g>
</svg>